<?xml version="1.0" encoding="UTF-8" standalone="no"?>
<svg width="18px" height="11px" viewBox="0 0 18 11" version="1.1" xmlns="http://www.w3.org/2000/svg" xmlns:xlink="http://www.w3.org/1999/xlink">
    <!-- Generator: Sketch 46.1 (44463) - http://www.bohemiancoding.com/sketch -->
    <title>if_icon-arrow-left-b_211617</title>
    <desc>Created with Sketch.</desc>
    <defs></defs>
    <g id="Page-1" stroke="none" stroke-width="1" fill="none" fill-rule="evenodd">
        <g id="if_icon-arrow-left-b_211617" transform="translate(9.166667, 5.333333) rotate(-90.000000) translate(-9.166667, -5.333333) translate(4.166667, -3.166667)" fill-rule="nonzero" fill="#444A51">
            <path d="M8.71287129,0.151041667 L8.60343929,0.244791667 L0.448150078,7.328125 C0.171964565,7.56770833 0,7.92708333 0,8.328125 C0,8.72916667 0.177175612,9.08854167 0.448150078,9.328125 L8.58780615,16.40625 L8.72329338,16.5260417 C8.85356957,16.6145833 9.00990099,16.6666667 9.17665451,16.6666667 C9.63001563,16.6666667 10,16.28125 10,15.8020833 L10,15.8020833 L10,0.864583333 L10,0.864583333 C10,0.385416667 9.63001563,0 9.17665451,0 C9.00468994,0 8.84314747,0.0572916667 8.71287129,0.151041667 Z" id="Shape"></path>
        </g>
    </g>
</svg>