<?xml version="1.0" encoding="UTF-8" standalone="no"?>
<svg width="10px" height="10px" viewBox="0 0 10 10" version="1.1" xmlns="http://www.w3.org/2000/svg" xmlns:xlink="http://www.w3.org/1999/xlink">
    <!-- Generator: Sketch 3.7.2 (28276) - http://www.bohemiancoding.com/sketch -->
    <title>close-circle</title>
    <desc>Created with Sketch.</desc>
    <defs></defs>
    <g id="Page-1" stroke="none" stroke-width="1" fill="none" fill-rule="evenodd">
        <g id="close-circle" fill="#000000">
            <g id="close_circle">
                <g id="Page-1">
                    <g id="close_circle">
                        <path d="M5,0 C2.2384375,0 0,2.20430769 0,4.92338461 C0,7.64246153 2.2384375,9.84646153 5,9.84646153 C7.76140625,9.84646153 10,7.64246153 10,4.92338461 C10,2.20430769 7.76140625,0 5,0 L5,0 L5,0 Z M5,9.23107692 C2.58375,9.23107692 0.625,7.30230769 0.625,4.92338461 C0.625,2.54446153 2.58375,0.615692308 5,0.615692308 C7.41625,0.615692308 9.375,2.54446153 9.375,4.92338461 C9.375,7.30230769 7.41625,9.23107692 5,9.23107692 L5,9.23107692 L5,9.23107692 Z M7.37448277,3.07905172 C7.50706897,2.94698277 7.50706897,2.73215517 7.37448277,2.59956897 C7.24206897,2.46681034 7.02724138,2.46681034 6.89465517,2.59956897 L4.98702586,4.50719828 L3.07939655,2.59956897 C2.94681034,2.46681034 2.73198277,2.46681034 2.59956897,2.59956897 C2.46681034,2.73215517 2.46681034,2.94698277 2.59956897,3.07905172 L4.50719828,4.98685345 L2.59956897,6.89465517 C2.46681034,7.02706897 2.46681034,7.24189655 2.59956897,7.37448277 C2.73198277,7.50724137 2.94681034,7.50724137 3.07939655,7.37448277 L4.98702586,5.46668103 L6.89465517,7.37448277 C7.02724138,7.50724137 7.24206897,7.50724137 7.37448277,7.37448277 C7.50706897,7.24189655 7.50706897,7.02706897 7.37448277,6.89465517 L5.46685345,4.98685345 L7.37448277,3.07905172 L7.37448277,3.07905172 Z" id="Imported-Layers"></path>
                        <path d="M5,0 C2.2384375,0 0,2.20430769 0,4.92338461 C0,7.64246153 2.2384375,9.84646153 5,9.84646153 C7.76140625,9.84646153 10,7.64246153 10,4.92338461 C10,2.20430769 7.76140625,0 5,0 L5,0 L5,0 Z M5,9.23107692 C2.58375,9.23107692 0.625,7.30230769 0.625,4.92338461 C0.625,2.54446153 2.58375,0.615692308 5,0.615692308 C7.41625,0.615692308 9.375,2.54446153 9.375,4.92338461 C9.375,7.30230769 7.41625,9.23107692 5,9.23107692 L5,9.23107692 L5,9.23107692 Z M7.37448277,3.07905172 C7.50706897,2.94698277 7.50706897,2.73215517 7.37448277,2.59956897 C7.24206897,2.46681034 7.02724138,2.46681034 6.89465517,2.59956897 L4.98702586,4.50719828 L3.07939655,2.59956897 C2.94681034,2.46681034 2.73198277,2.46681034 2.59956897,2.59956897 C2.46681034,2.73215517 2.46681034,2.94698277 2.59956897,3.07905172 L4.50719828,4.98685345 L2.59956897,6.89465517 C2.46681034,7.02706897 2.46681034,7.24189655 2.59956897,7.37448277 C2.73198277,7.50724137 2.94681034,7.50724137 3.07939655,7.37448277 L4.98702586,5.46668103 L6.89465517,7.37448277 C7.02724138,7.50724137 7.24206897,7.50724137 7.37448277,7.37448277 C7.50706897,7.24189655 7.50706897,7.02706897 7.37448277,6.89465517 L5.46685345,4.98685345 L7.37448277,3.07905172 L7.37448277,3.07905172 Z" id="Imported-Layers-2"></path>
                    </g>
                </g>
            </g>
        </g>
    </g>
</svg>